<svg id="Cics-Program--Streamline-Carbon.svg" xmlns="http://www.w3.org/2000/svg" viewBox="-0.5 -0.5 16 16" height="16" width="16"><desc>Cics Program Streamline Icon: https://streamlinehq.com</desc><defs></defs><path d="m9.4546875 8.90625 -1.2140624999999998 1.2140624999999998L8.90625 10.78125l1.875 -1.875 -1.875 -1.875 -0.6656249999999999 0.6609375L9.4546875 8.90625z" fill="#000000" stroke-width="1"></path><path d="m5.5453125 8.90625 1.2140624999999998 -1.2140624999999998L6.09375 7.03125l-1.875 1.875 1.875 1.875 0.6656249999999999 -0.6609375L5.5453125 8.90625z" fill="#000000" stroke-width="1"></path><path d="M3.75 3.75a0.46875 0.46875 0 1 0 0.9375 0 0.46875 0.46875 0 1 0 -0.9375 0" fill="#000000" stroke-width="1"></path><path d="M2.34375 3.75a0.46875 0.46875 0 1 0 0.9375 0 0.46875 0.46875 0 1 0 -0.9375 0" fill="#000000" stroke-width="1"></path><path d="M13.125 1.875H1.875c-0.5169375 0 -0.9375 0.42070312499999996 -0.9375 0.9375v9.375c0 0.516796875 0.4205625 0.9375 0.9375 0.9375h11.25c0.5169375 0 0.9375 -0.42070312499999996 0.9375 -0.9375V2.8125c0 -0.516796875 -0.4205625 -0.9375 -0.9375 -0.9375Zm0 0.9375v1.875H1.875V2.8125h11.25ZM1.875 12.1875V5.625h11.25v6.5625H1.875Z" fill="#000000" stroke-width="1"></path><path id="_Transparent_Rectangle_" d="M0 0h15v15H0Z" fill="none" stroke-width="1"></path></svg>