<svg id="Education--Streamline-Carbon.svg" xmlns="http://www.w3.org/2000/svg" viewBox="-0.5 -0.5 16 16" height="16" width="16"><desc>Education Streamline Icon: https://streamlinehq.com</desc><defs></defs><title>education</title><path d="M12.1875 14.0625h-0.9375v-1.40625a2.346515625 2.346515625 0 0 0 -2.34375 -2.34375h-2.8125a2.346515625 2.346515625 0 0 0 -2.34375 2.34375v1.40625H2.8125v-1.40625a3.28509375 3.28509375 0 0 1 3.28125 -3.28125h2.8125a3.28509375 3.28509375 0 0 1 3.28125 3.28125Z" fill="#000000" stroke-width="1"></path><path d="M2.34375 2.8125a0.46875 0.46875 0 0 0 -0.46875 0.46875v4.21875h0.9375V3.28125a0.46875 0.46875 0 0 0 -0.46875 -0.46875Z" fill="#000000" stroke-width="1"></path><path d="M1.875 0.9375v0.9375h2.34375v3.28125a3.28125 3.28125 0 0 0 6.5625 0V1.875h2.34375V0.9375Zm3.28125 0.9375h4.6875v1.40625H5.15625Zm2.34375 5.625a2.34375 2.34375 0 0 1 -2.34375 -2.34375V4.21875h4.6875v0.9375a2.34375 2.34375 0 0 1 -2.34375 2.34375Z" fill="#000000" stroke-width="1"></path><path id="_Transparent_Rectangle_" d="M0 0h15v15H0Z" fill="none" stroke-width="1"></path></svg>