<svg id="Email-New--Streamline-Carbon.svg" xmlns="http://www.w3.org/2000/svg" viewBox="-0.5 -0.5 16 16" height="16" width="16"><desc>Email New Streamline Icon: https://streamlinehq.com</desc><defs></defs><title>email--new</title><path d="M8.90625 11.25H1.875L1.87340625 4.17478125l5.359734375 3.710671875a0.46912499999999996 0.46912499999999996 0 0 0 0.53371875 0L13.125 4.1759531249999995 13.125 8.4375h0.9375V3.75a0.9387656249999999 0.9387656249999999 0 0 0 -0.9375 -0.9375H1.875a0.938578125 0.938578125 0 0 0 -0.9375 0.9375v7.5a0.9387656249999999 0.9387656249999999 0 0 0 0.9375 0.9375h7.03125Zm3.1868437500000004 -7.5L7.5 6.9298593749999995 2.9069062499999996 3.75Z" fill="#000000" stroke-width="1"></path><path d="M10.3125 11.25a1.875 1.875 0 1 0 3.75 0 1.875 1.875 0 1 0 -3.75 0" fill="#000000" stroke-width="1"></path><path id="_Transparent_Rectangle_" d="M0 0h15v15H0Z" fill="none" stroke-width="1"></path></svg>