<svg id="User-Avatar--Streamline-Carbon.svg" xmlns="http://www.w3.org/2000/svg" viewBox="-0.5 -0.5 16 16" height="16" width="16"><desc>User Avatar Streamline Icon: https://streamlinehq.com</desc><defs></defs><path d="M7.5 3.75a2.34375 2.34375 0 1 0 2.34375 2.34375 2.34375 2.34375 0 0 0 -2.34375 -2.34375Zm0 3.75a1.40625 1.40625 0 1 1 1.40625 -1.40625 1.40784375 1.40784375 0 0 1 -1.40625 1.40625Z" fill="#000000" stroke-width="1"></path><path d="M7.5 0.9375a6.5625 6.5625 0 1 0 6.5625 6.5625A6.56990625 6.56990625 0 0 0 7.5 0.9375Zm-2.8125 11.426484375V11.71875a1.4077968749999998 1.4077968749999998 0 0 1 1.40625 -1.40625h2.8125a1.4077968749999998 1.4077968749999998 0 0 1 1.40625 1.40625v0.645234375a5.577609375 5.577609375 0 0 1 -5.625 0Zm6.558984375 -0.680015625A2.3445 2.3445 0 0 0 8.90625 9.375h-2.8125a2.3445 2.3445 0 0 0 -2.3402343749999996 2.30896875 5.625 5.625 0 1 1 7.492968749999999 0Z" fill="#000000" stroke-width="1"></path><path id="_Transparent_Rectangle_" d="M0 0h15v15H0Z" fill="none" stroke-width="1"></path></svg>