<svg xmlns="http://www.w3.org/2000/svg" fill="none" viewBox="-0.5 -0.5 24 24" id="Playlist-Remove--Streamline-Rounded-Material-Symbols.svg" height="24" width="24"><desc>Playlist Remove Streamline Icon: https://streamlinehq.com</desc><path fill="#000000" d="m16.387500000000003 18.352083333333333 -2.2041666666666666 2.2281250000000004c-0.14375 0.14375 -0.31145833333333334 0.215625 -0.503125 0.215625s-0.359375 -0.071875 -0.503125 -0.215625c-0.14375 -0.14375 -0.215625 -0.3154354166666667 -0.215625 -0.5151041666666667 0 -0.19966875 0.071875 -0.3713541666666667 0.215625 -0.5151041666666667l2.2041666666666666 -2.2041666666666666 -2.2281250000000004 -2.2041666666666666c-0.14375 -0.14375 -0.215625 -0.31145833333333334 -0.215625 -0.503125s0.071875 -0.359375 0.215625 -0.503125c0.14375 -0.14375 0.3154354166666667 -0.215625 0.5151041666666667 -0.215625 0.19966875 0 0.3713541666666667 0.071875 0.5151041666666667 0.215625l2.2041666666666666 2.2041666666666666 2.2041666666666666 -2.2281250000000004c0.14375 -0.14375 0.31145833333333334 -0.215625 0.503125 -0.215625s0.359375 0.071875 0.503125 0.215625c0.14375 0.14375 0.215625 0.3154354166666667 0.215625 0.5151041666666667 0 0.19966875 -0.071875 0.3713541666666667 -0.215625 0.5151041666666667l-2.2041666666666666 2.2041666666666666 2.2281250000000004 2.2041666666666666c0.14375 0.14375 0.215625 0.31145833333333334 0.215625 0.503125s-0.071875 0.359375 -0.215625 0.503125c-0.14375 0.14375 -0.3154354166666667 0.215625 -0.5151041666666667 0.215625 -0.19966875 0 -0.3713541666666667 -0.071875 -0.5151041666666667 -0.215625l-2.2041666666666666 -2.2041666666666666ZM3.59375 15.09375c-0.20364583333333333 0 -0.374310625 -0.06933541666666666 -0.5119895833333333 -0.20795833333333333C2.943918541666667 14.747312500000001 2.875 14.575627083333334 2.875 14.3706875c0 -0.20474791666666667 0.06891854166666668 -0.37504375 0.20676041666666667 -0.5107916666666668 0.13767895833333332 -0.13574791666666666 0.30834374999999997 -0.20364583333333333 0.5119895833333333 -0.20364583333333333h5.75c0.20364583333333333 0 0.37437291666666667 0.06933541666666666 0.5122291666666666 0.20795833333333333 0.13766458333333334 0.13847916666666665 0.20652083333333335 0.31016458333333335 0.20652083333333335 0.5151041666666667 0 0.20474791666666667 -0.06885625 0.37504375 -0.20652083333333335 0.5107916666666668 -0.13785625 0.13574791666666666 -0.3085833333333334 0.20364583333333333 -0.5122291666666666 0.20364583333333333h-5.75Zm0 -3.953125c-0.20364583333333333 0 -0.374310625 -0.06933541666666666 -0.5119895833333333 -0.20795833333333333C2.943918541666667 10.794187500000001 2.875 10.622502083333334 2.875 10.4175625c0 -0.20474791666666667 0.06891854166666668 -0.37504375 0.20676041666666667 -0.5107916666666668 0.13767895833333332 -0.13574791666666666 0.30834374999999997 -0.20364583333333333 0.5119895833333333 -0.20364583333333333H13.416666666666668c0.20364583333333333 0 0.37437291666666667 0.06933541666666666 0.5122291666666666 0.20795833333333333 0.13766458333333334 0.13847916666666665 0.20652083333333335 0.31016458333333335 0.20652083333333335 0.5151041666666667 0 0.20474791666666667 -0.06885625 0.37504375 -0.20652083333333335 0.5107916666666668 -0.13785625 0.13574791666666666 -0.3085833333333334 0.20364583333333333 -0.5122291666666666 0.20364583333333333H3.59375Zm0 -3.953125c-0.20364583333333333 0 -0.374310625 -0.06933541666666666 -0.5119895833333333 -0.20795833333333333C2.943918541666667 6.8410625 2.875 6.669377083333333 2.875 6.4644375c0 -0.20474791666666667 0.06891854166666668 -0.37504375 0.20676041666666667 -0.5107916666666668C3.219439375 5.817897916666667 3.3901041666666667 5.75 3.59375 5.75H13.416666666666668c0.20364583333333333 0 0.37437291666666667 0.06933541666666666 0.5122291666666666 0.20795833333333333 0.13766458333333334 0.13847916666666665 0.20652083333333335 0.31016458333333335 0.20652083333333335 0.5151041666666667 0 0.20474791666666667 -0.06885625 0.37504375 -0.20652083333333335 0.5107916666666668 -0.13785625 0.13574791666666666 -0.3085833333333334 0.20364583333333333 -0.5122291666666666 0.20364583333333333H3.59375Z" stroke-width="1"></path></svg>